HIERARCHY
ROOT hip
{
  OFFSET 0.00112043 5.09927 -9.65472
  CHANNELS 6 Xposition Yposition Zposition Zrotation Xrotation Yrotation
  JOINT abdomen
  {
    OFFSET 0 -1.186 -1.5018
    CHANNELS 3 Zrotation Xrotation Yrotation
    JOINT abdomen2
    {
      OFFSET 0 9.964 0.2134
      CHANNELS 3 Zrotation Xrotation Yrotation
      JOINT chest
      {
        OFFSET 0 13.134 -3.2573
        CHANNELS 3 Zrotation Xrotation Yrotation
        JOINT neck
        {
          OFFSET 0 20.686 -1.6905
          CHANNELS 3 Zrotation Xrotation Yrotation
          JOINT head
          {
            OFFSET 0 7.238 -0.1237
            CHANNELS 3 Zrotation Xrotation Yrotation
            End Site
            {
              OFFSET 0 0 0
            }
          }
        }
        JOINT lCollar
        {
          OFFSET 1.7069 20.075 5.0056
          CHANNELS 3 Zrotation Xrotation Yrotation
          JOINT lShldr
          {
            OFFSET 13.6458 -0.047 -4.849
            CHANNELS 3 Zrotation Xrotation Yrotation
            JOINT lForeArm
            {
              OFFSET 28.3255 -0.9759 2.2888
              CHANNELS 3 Zrotation Xrotation Yrotation
              JOINT lHand
              {
                OFFSET 22.1583 -0.53 10.8316
                CHANNELS 3 Zrotation Xrotation Yrotation
                JOINT lThumb1
                {
                  OFFSET 0.786 0.112 2.5817
                  CHANNELS 3 Zrotation Xrotation Yrotation
                  JOINT lThumb2
                  {
                    OFFSET 0.3601 -0.878 4.2331
                    CHANNELS 3 Zrotation Xrotation Yrotation
                    JOINT lThumb2_End
                    {
                      OFFSET 1.8127 -1.216 2.2227
                      CHANNELS 3 Zrotation Xrotation Yrotation
                      End Site
                      {
                        OFFSET 0.0181 -0.0122 0.0222
                      }
                    }
                  }
                }
                JOINT lCarpal1
                {
                  OFFSET 0.9571 1.114 1.7695
                  CHANNELS 3 Zrotation Xrotation Yrotation
                  JOINT lIndex1
                  {
                    OFFSET 4.1246 0.487 4.1451
                    CHANNELS 3 Zrotation Xrotation Yrotation
                    JOINT lIndex2
                    {
                      OFFSET 3.4052 -1.454 2.7682
                      CHANNELS 3 Zrotation Xrotation Yrotation
                      JOINT lIndex2_End
                      {
                        OFFSET 1.4531 -1.795 1.2713
                        CHANNELS 3 Zrotation Xrotation Yrotation
                        End Site
                        {
                          OFFSET 0.0145 -0.0179 0.0127
                        }
                      }
                    }
                  }
                  JOINT lMid1
                  {
                    OFFSET 5.6954 0.21 2.1184
                    CHANNELS 3 Zrotation Xrotation Yrotation
                    JOINT lMid2
                    {
                      OFFSET 3.9766 -1.54 2.3863
                      CHANNELS 3 Zrotation Xrotation Yrotation
                      JOINT lMid2_End
                      {
                        OFFSET 1.4042 -1.926 1.125
                        CHANNELS 3 Zrotation Xrotation Yrotation
                        End Site
                        {
                          OFFSET 0.014 -0.0193 0.0113
                        }
                      }
                    }
                  }
                }
                JOINT lCarpal2
                {
                  OFFSET 2.0956 0.66 -0.3894
                  CHANNELS 3 Zrotation Xrotation Yrotation
                  JOINT lRing1
                  {
                    OFFSET 5.0395 -0.09 2.4971
                    CHANNELS 3 Zrotation Xrotation Yrotation
                    JOINT lRing2
                    {
                      OFFSET 3.7921 -1.552 1.4806
                      CHANNELS 3 Zrotation Xrotation Yrotation
                      JOINT lRing2_End
                      {
                        OFFSET 1.4655 -1.808 0.9609
                        CHANNELS 3 Zrotation Xrotation Yrotation
                        End Site
                        {
                          OFFSET 0.0147 -0.0181 0.0096
                        }
                      }
                    }
                  }
                  JOINT lPinky1
                  {
                    OFFSET 4.9141 -1.269 0.3591
                    CHANNELS 3 Zrotation Xrotation Yrotation
                    JOINT lPinky2
                    {
                      OFFSET 3.1477 -1.685 0.8462
                      CHANNELS 3 Zrotation Xrotation Yrotation
                      JOINT lPinky2_End
                      {
                        OFFSET 0.8055 -1.585 0.7955
                        CHANNELS 3 Zrotation Xrotation Yrotation
                        End Site
                        {
                          OFFSET 0.0081 -0.0158 0.008
                        }
                      }
                    }
                  }
                }
              }
            }
          }
        }
        JOINT rCollar
        {
          OFFSET -1.7069 20.075 5.0056
          CHANNELS 3 Zrotation Xrotation Yrotation
          JOINT rShldr
          {
            OFFSET -13.6458 -0.047 -4.849
            CHANNELS 3 Zrotation Xrotation Yrotation
            JOINT rForeArm
            {
              OFFSET -28.3255 -0.9759 2.2888
              CHANNELS 3 Zrotation Xrotation Yrotation
              JOINT rHand
              {
                OFFSET -22.1583 -0.53 10.8316
                CHANNELS 3 Zrotation Xrotation Yrotation
                JOINT rThumb1
                {
                  OFFSET -0.786 0.112 2.5817
                  CHANNELS 3 Zrotation Xrotation Yrotation
                  JOINT rThumb2
                  {
                    OFFSET -0.3601 -0.878 4.2331
                    CHANNELS 3 Zrotation Xrotation Yrotation
                    JOINT rThumb2_End
                    {
                      OFFSET -1.8127 -1.216 2.2227
                      CHANNELS 3 Zrotation Xrotation Yrotation
                      End Site
                      {
                        OFFSET -0.0181 -0.0122 0.0222
                      }
                    }
                  }
                }
                JOINT rCarpal1
                {
                  OFFSET -0.9571 1.114 1.7695
                  CHANNELS 3 Zrotation Xrotation Yrotation
                  JOINT rIndex1
                  {
                    OFFSET -4.1246 0.487 4.1451
                    CHANNELS 3 Zrotation Xrotation Yrotation
                    JOINT rIndex2
                    {
                      OFFSET -3.4052 -1.454 2.7682
                      CHANNELS 3 Zrotation Xrotation Yrotation
                      JOINT rIndex2_End
                      {
                        OFFSET -1.4531 -1.795 1.2713
                        CHANNELS 3 Zrotation Xrotation Yrotation
                        End Site
                        {
                          OFFSET -0.0145 -0.018 0.0127
                        }
                      }
                    }
                  }
                  JOINT rMid1
                  {
                    OFFSET -5.6954 0.21 2.1184
                    CHANNELS 3 Zrotation Xrotation Yrotation
                    JOINT rMid2
                    {
                      OFFSET -3.9766 -1.54 2.3863
                      CHANNELS 3 Zrotation Xrotation Yrotation
                      JOINT rMid2_End
                      {
                        OFFSET -1.4042 -1.926 1.125
                        CHANNELS 3 Zrotation Xrotation Yrotation
                        End Site
                        {
                          OFFSET -0.014 -0.0193 0.0113
                        }
                      }
                    }
                  }
                }
                JOINT rCarpal2
                {
                  OFFSET -2.0956 0.66 -0.3894
                  CHANNELS 3 Zrotation Xrotation Yrotation
                  JOINT rRing1
                  {
                    OFFSET -5.0395 -0.09 2.4971
                    CHANNELS 3 Zrotation Xrotation Yrotation
                    JOINT rRing2
                    {
                      OFFSET -3.7921 -1.552 1.4806
                      CHANNELS 3 Zrotation Xrotation Yrotation
                      JOINT rRing2_End
                      {
                        OFFSET -1.4655 -1.808 0.9609
                        CHANNELS 3 Zrotation Xrotation Yrotation
                        End Site
                        {
                          OFFSET -0.0147 -0.0181 0.0096
                        }
                      }
                    }
                  }
                  JOINT rPinky1
                  {
                    OFFSET -4.9141 -1.269 0.3592
                    CHANNELS 3 Zrotation Xrotation Yrotation
                    JOINT rPinky2
                    {
                      OFFSET -3.1477 -1.685 0.8462
                      CHANNELS 3 Zrotation Xrotation Yrotation
                      JOINT rPinky2_End
                      {
                        OFFSET -0.8055 -1.585 0.7955
                        CHANNELS 3 Zrotation Xrotation Yrotation
                        End Site
                        {
                          OFFSET -0.0081 -0.0158 0.008
                        }
                      }
                    }
                  }
                }
              }
            }
          }
        }
      }
    }
  }
  JOINT lThigh
  {
    OFFSET 8.367 -8.2066 0.5982
    CHANNELS 3 Zrotation Xrotation Yrotation
    JOINT lShin
    {
      OFFSET 2.1923 -43.463 -0.4932
      CHANNELS 3 Zrotation Xrotation Yrotation
      JOINT lFoot
      {
        OFFSET 0.7333 -45.8593 -2.6451
        CHANNELS 3 Zrotation Xrotation Yrotation
        End Site
        {
          OFFSET 2.6618 -4.2699 12.3931
        }
      }
    }
  }
  JOINT rThigh
  {
    OFFSET -8.367 -8.2066 0.5982
    CHANNELS 3 Zrotation Xrotation Yrotation
    JOINT rShin
    {
      OFFSET -2.1923 -43.463 -0.4931
      CHANNELS 3 Zrotation Xrotation Yrotation
      JOINT rFoot
      {
        OFFSET -0.7333 -45.8593 -2.6451
        CHANNELS 3 Zrotation Xrotation Yrotation
        End Site
        {
          OFFSET -2.6618 -4.2699 12.3931
        }
      }
    }
  }
}
MOTION
Frames:	4
Frame Time:	0.0333333
0 91.7903 2.51682 0 0 -0 0 0 -0 0 0 -0 0 0 -0 0 0 -0 0 0 -0 0 0 -0 1.66051 0.0835086 5.75766 -0.0175111 0.895433 15.7816 7.95139e-016 -1.98785e-016 -0 5.46658e-016 -3.97569e-016 -0 5.96354e-016 0 -0 3.97569e-016 1.98785e-016 9.54166e-015 1.49089e-016 -3.97569e-016 -0 6.4605e-016 0 3.18055e-015 5.96354e-016 0 3.18055e-015 8.94531e-016 -1.98785e-016 6.36111e-015 6.4605e-016 0 3.18055e-015 5.96354e-016 0 3.18055e-015 8.94531e-016 -1.98785e-016 6.36111e-015 1.49089e-016 -3.97569e-016 -0 6.4605e-016 0 3.18055e-015 5.96354e-016 0 3.18055e-015 8.94531e-016 -1.98785e-016 6.36111e-015 6.4605e-016 0 3.18055e-015 5.96354e-016 0 3.18055e-015 8.94531e-016 -1.98785e-016 6.36111e-015 0 0 -0 -1.4496 0.0636048 -5.0245 -1.74811 1.20616 -16.8394 -1.19271e-015 1.98785e-016 -3.18055e-015 -3.97569e-016 1.98785e-016 -3.18055e-015 -2.98177e-016 1.98785e-016 -3.18055e-015 -2.98177e-016 3.97569e-016 -0 4.96962e-016 0 -6.36111e-015 -9.93923e-017 3.97569e-016 -0 -8.94531e-016 5.96354e-016 -0 -3.97569e-016 3.97569e-016 -0 -9.93923e-017 3.97569e-016 -0 -8.94531e-016 5.96354e-016 -0 -3.97569e-016 3.97569e-016 -0 4.96962e-016 0 -6.36111e-015 -9.93923e-017 3.97569e-016 -0 -8.94531e-016 5.96354e-016 -0 -3.97569e-016 3.97569e-016 -0 -9.93923e-017 3.97569e-016 -0 -8.94531e-016 5.96354e-016 -0 -3.97569e-016 3.97569e-016 -0 -4.66111 -0.998717 0.12318 0.00986924 1.54847 0.176523 4.65186 -0.572283 -0.254274 4.66111 -0.998765 -0.123176 -0.00986867 1.54869 -0.176537 -4.65186 -0.572453 0.25427 
-2.98565 39.0651 38.4976 132.698 -66.6673 -0.476482 -0.227758 3.36266 -0.148367 -0.447996 6.72568 -0.284037 -0.447997 6.72569 -0.284033 7.38323e-005 5.23988 6.02762e-006 2.24907e-006 -17.9658 1.09433e-005 14.8413 -20.603 0.483282 -38.1513 3.4745 -36.5891 -74.9047 -59.3625 -105.702 -26.8975 9.62286 -7.0294 -2.83268e-015 -9.93923e-016 -0 -6.84228e-007 5.03286e-007 -5.97078e-007 -9.19379e-015 -1.59028e-015 -1.59028e-015 -2.80783e-015 -1.98785e-016 -1.59028e-015 -2.93207e-015 -9.93923e-016 6.36111e-015 -6.84228e-007 5.03286e-007 -5.97078e-007 6.53505e-015 -1.59028e-015 -0 -2.93207e-015 -9.93923e-016 6.36111e-015 -6.84228e-007 5.03286e-007 -5.97078e-007 6.53505e-015 -1.59028e-015 -0 -2.80783e-015 -1.98785e-016 -1.59028e-015 -2.93207e-015 -9.93923e-016 6.36111e-015 -6.84228e-007 5.03286e-007 -5.97078e-007 6.53505e-015 -1.59028e-015 -0 -2.93207e-015 -9.93923e-016 6.36111e-015 -6.84228e-007 5.03286e-007 -5.97078e-007 6.53505e-015 -1.59028e-015 -0 -14.6929 -20.4236 -0.871671 38.3279 3.59752 37.2309 75.5193 -61.568 106.104 26.9114 9.36185 7.24049 3.7748e-006 -2.97823e-007 9.57248e-007 8.45966e-007 -1.9579e-007 3.32671e-007 8.74653e-015 -7.95139e-016 7.95139e-016 1.0138e-014 7.95139e-016 7.95139e-016 3.7748e-006 -2.97823e-007 9.57248e-007 8.45966e-007 -1.9579e-007 3.32671e-007 5.56597e-015 -3.97569e-015 -0 3.7748e-006 -2.97823e-007 9.57248e-007 8.45966e-007 -1.9579e-007 3.32671e-007 5.56597e-015 -3.97569e-015 -0 1.0138e-014 7.95139e-016 7.95139e-016 3.7748e-006 -2.97823e-007 9.57248e-007 8.45966e-007 -1.9579e-007 3.32671e-007 5.56597e-015 -3.97569e-015 -0 3.7748e-006 -2.97823e-007 9.57248e-007 8.45966e-007 -1.9579e-007 3.32671e-007 5.56597e-015 -3.97569e-015 -0 40.9022 -51.2159 30.9108 -21.2151 59.3791 26.8386 11.125 34.9027 -1.2792 -48.2751 -53.6796 -37.9339 21.1148 59.4151 -27.3529 -12.3805 36.1394 1.50112 
-0.65947 25.8772 60.0664 15.3856 -83.3257 -177.645 -0.322986 4.8754 -0.21625 -0.630825 9.75183 -0.407048 -0.630828 9.75186 -0.407051 -0.000112807 7.31703 9.00835e-006 -2.90184e-006 -25.1301 -9.20759e-007 21.6501 -29.8731 0.756466 -54.5005 2.85999 -55.6245 -85.3737 -18.3535 -124.101 -39.4255 13.4311 -8.61721 -3.18055e-015 7.95139e-016 3.18055e-015 3.18055e-015 -3.18055e-015 -0 3.18055e-015 1.59028e-015 4.77083e-015 -6.36111e-015 1.59028e-015 3.18055e-015 6.36111e-015 2.14687e-014 1.11319e-014 5.29669e-031 -4.77083e-015 6.36111e-015 3.18055e-015 -2.38542e-015 -0 6.36111e-015 2.14687e-014 1.11319e-014 5.29669e-031 -4.77083e-015 6.36111e-015 3.18055e-015 -2.38542e-015 -0 -6.36111e-015 1.59028e-015 3.18055e-015 6.36111e-015 2.14687e-014 1.11319e-014 5.29669e-031 -4.77083e-015 6.36111e-015 3.18055e-015 -2.38542e-015 -0 6.36111e-015 2.14687e-014 1.11319e-014 5.29669e-031 -4.77083e-015 6.36111e-015 3.18055e-015 -2.38542e-015 -0 -21.5369 -29.6103 -1.36241 54.6327 3.04186 56.235 86.081 -20.2921 124.122 39.4568 13.087 8.88286 -5.26079e-006 -1.38618e-006 1.49283e-008 -4.60121e-006 -4.42427e-006 -1.91116e-006 -4.2681e-006 -9.78554e-007 -1.92667e-006 -1.76556e-031 -6.36111e-015 -1.59028e-015 -5.26079e-006 -1.38618e-006 1.49283e-008 -4.60121e-006 -4.42427e-006 -1.91116e-006 -4.2681e-006 -9.78554e-007 -1.92667e-006 -5.26079e-006 -1.38618e-006 1.49283e-008 -4.60121e-006 -4.42427e-006 -1.91116e-006 -4.2681e-006 -9.78554e-007 -1.92667e-006 -1.76556e-031 -6.36111e-015 -1.59028e-015 -5.26079e-006 -1.38618e-006 1.49283e-008 -4.60121e-006 -4.42427e-006 -1.91116e-006 -4.2681e-006 -9.78554e-007 -1.92667e-006 -5.26079e-006 -1.38618e-006 1.49283e-008 -4.60121e-006 -4.42427e-006 -1.91116e-006 -4.2681e-006 -9.78554e-007 -1.92667e-006 96.8576 -63.5243 76.1151 -91.949 72.3413 97.1648 16.0111 50.3816 -1.79929 -107.262 -59.2424 -83.0071 93.609 72.296 -97.9955 -15.0077 49.5469 1.79612 
-0.234244 28.7881 54.8143 89.3125 -89.7452 -90.4204 -0.302199 4.53919 -0.201098 -0.591154 9.07939 -0.379887 -0.591154 9.07939 -0.379887 -2.72876e-005 6.2297 2.06833e-006 -1.31604e-007 -21.4915 -5.0064e-007 20.1284 -27.8132 0.690465 -50.8912 3.15316 -51.4076 -85.378 -27.6473 -123.525 -36.6093 12.631 -8.34593 1.36573e-006 8.22145e-007 4.47141e-007 2.73146e-006 1.64429e-006 8.94283e-007 -7.95139e-015 -7.95139e-016 3.18055e-015 -4.77083e-015 -8.74653e-015 6.36111e-015 1.36573e-006 8.22145e-007 4.47141e-007 2.73146e-006 1.64429e-006 8.94283e-007 1.76556e-031 -3.18055e-015 3.18055e-015 1.36573e-006 8.22145e-007 4.47141e-007 2.73146e-006 1.64429e-006 8.94283e-007 1.76556e-031 -3.18055e-015 3.18055e-015 -4.77083e-015 -8.74653e-015 6.36111e-015 1.36573e-006 8.22145e-007 4.47141e-007 2.73146e-006 1.64429e-006 8.94283e-007 1.76556e-031 -3.18055e-015 3.18055e-015 1.36573e-006 8.22145e-007 4.47141e-007 2.73146e-006 1.64429e-006 8.94283e-007 1.76556e-031 -3.18055e-015 3.18055e-015 -20.0006 -27.5692 -1.24404 51.0349 3.32265 52.0245 86.1668 -29.6003 123.738 36.6363 12.304 8.6019 -3.18055e-015 7.95139e-016 3.18055e-015 -4.77083e-015 5.56597e-015 -0 -1.59028e-015 0 9.54166e-015 -3.18055e-015 -7.95139e-016 -0 1.59028e-015 0 6.36111e-015 -6.36111e-015 5.56597e-015 3.18055e-015 -1.41245e-030 6.36111e-015 1.27222e-014 1.59028e-015 0 6.36111e-015 -6.36111e-015 5.56597e-015 3.18055e-015 -1.41245e-030 6.36111e-015 1.27222e-014 -3.18055e-015 -7.95139e-016 -0 1.59028e-015 0 6.36111e-015 -6.36111e-015 5.56597e-015 3.18055e-015 -1.41245e-030 6.36111e-015 1.27222e-014 1.59028e-015 0 6.36111e-015 -6.36111e-015 5.56597e-015 3.18055e-015 -1.41245e-030 6.36111e-015 1.27222e-014 81.2024 -62.5944 63.0954 -71.4214 72.7219 76.8503 14.8848 46.4082 -1.62424 -92.2289 -60.2262 -71.9136 71.0336 72.7101 -76.3574 -14.7339 46.1429 1.6118 
